<svg xmlns="http://www.w3.org/2000/svg" viewBox="0 0 64 64" role="img" aria-label="SL icon">
  <defs>
    <linearGradient id="bg" x1="0" y1="0" x2="1" y2="1">
      <stop offset="0%" stop-color="#008080"/>
      <stop offset="100%" stop-color="#ff69b4"/>
    </linearGradient>
  </defs>
  <rect x="4" y="4" width="56" height="56" rx="14" fill="url(#bg)"/>
  <path d="M23 20c-5.6 0-10 3.2-10 8.2 0 11.2 16.5 5.2 16.5 12.1 0 2.2-2.1 3.4-5.1 3.4-2.8 0-5.9-1-8.1-2.7l-2.7 5.3c2.6 1.9 6.8 3.2 10.8 3.2 6.6 0 11.5-3.1 11.5-8.8 0-11.5-16.5-5.5-16.5-12.2 0-1.9 1.8-2.9 4.3-2.9 2.1 0 4.9.7 7.2 1.9l2.6-5.4c-2.4-1.4-6-2.2-9-2.2z" fill="#ffffff"/>
  <path d="M41 18h6.6v23.5c0 1.5.8 2.2 2 2.2.8 0 1.8-.3 2.8-.8l2.2 5.1c-1.9 1.2-4.3 1.8-6.7 1.8-4.7 0-6.9-2.9-6.9-7.7z" fill="#ffffff"/>
</svg>
